<svg width="32" height="32" viewBox="0 0 32 32" fill="none" xmlns="http://www.w3.org/2000/svg">
<path d="M14.3083 4.89173C13.9082 4.49179 13.3657 4.26712 12.8 4.26712C12.2343 4.26712 11.6918 4.49179 11.2917 4.89173L1.69175 14.4917C1.29181 14.8918 1.06714 15.4343 1.06714 16C1.06714 16.5657 1.29181 17.1082 1.69175 17.5083L11.2917 27.1083C11.6941 27.4969 12.233 27.7119 12.7923 27.707C13.3517 27.7022 13.8868 27.4778 14.2823 27.0823C14.6778 26.6867 14.9022 26.1517 14.9071 25.5923C14.9119 25.033 14.6969 24.4941 14.3083 24.0917L8.53335 18.1333H28.8C29.3658 18.1333 29.9084 17.9086 30.3085 17.5085C30.7086 17.1084 30.9333 16.5658 30.9333 16C30.9333 15.4342 30.7086 14.8916 30.3085 14.4915C29.9084 14.0914 29.3658 13.8667 28.8 13.8667H8.53335L14.3083 7.90826C14.7082 7.50821 14.9329 6.96568 14.9329 6.4C14.9329 5.83431 14.7082 5.29179 14.3083 4.89173Z" fill="#71DFFC" stroke="#27B8E0"/>
</svg>
