<svg width="38" height="38" viewBox="0 0 38 38" fill="none" xmlns="http://www.w3.org/2000/svg">
<path fill-rule="evenodd" clip-rule="evenodd" d="M10.6281 12.9628C9.95362 12.9628 9.40737 12.3999 9.51187 11.7349C10.165 7.695 13.243 4.75 18.5844 4.75C23.9281 4.75 27.531 7.98 27.531 12.3856C27.531 15.5776 25.9516 17.8196 23.2797 19.4465C20.6672 21.0116 19.9215 22.1017 19.9215 24.2202V24.2915C19.9215 24.6064 19.7964 24.9085 19.5737 25.1312C19.351 25.3539 19.0489 25.479 18.734 25.479H16.9052C16.5924 25.479 16.2921 25.3555 16.0697 25.1354C15.8474 24.9153 15.7209 24.6163 15.7177 24.3034L15.7106 23.8284C15.6085 20.9285 16.8435 19.076 19.6175 17.3874C22.0638 15.8864 22.9354 14.6918 22.9354 12.5709C22.9354 10.2458 21.1351 8.53813 18.3611 8.53813C15.9647 8.53813 14.2999 9.7945 13.7584 11.8679C13.6016 12.4711 13.0981 12.9628 12.4759 12.9628H10.6281ZM17.803 33.25C19.2802 33.25 20.4036 32.1243 20.4036 30.6612C20.4036 29.1935 19.2802 28.0677 17.803 28.0677C16.3637 28.0677 15.2214 29.1935 15.2214 30.6589C15.2214 32.1243 16.3637 33.25 17.803 33.25Z" fill="#71DFFC" stroke="#27B8E0"/>
</svg>
