<svg width="38" height="38" viewBox="0 0 38 38" fill="none" xmlns="http://www.w3.org/2000/svg">
<path fill-rule="evenodd" clip-rule="evenodd" d="M4 19C4 17.7448 5.01753 16.7273 6.27273 16.7273H31.7273C32.9825 16.7273 34 17.7448 34 19C34 20.2552 32.9825 21.2727 31.7273 21.2727H6.27273C5.01753 21.2727 4 20.2552 4 19Z" fill="#71DFFC"/>
<path d="M6.27273 16.2273C4.74139 16.2273 3.5 17.4687 3.5 19H4.5C4.5 18.0209 5.29368 17.2273 6.27273 17.2273V16.2273ZM31.7273 16.2273H6.27273V17.2273H31.7273V16.2273ZM34.5 19C34.5 17.4687 33.2586 16.2273 31.7273 16.2273V17.2273C32.7063 17.2273 33.5 18.0209 33.5 19H34.5ZM31.7273 21.7727C33.2586 21.7727 34.5 20.5313 34.5 19H33.5C33.5 19.979 32.7063 20.7727 31.7273 20.7727V21.7727ZM6.27273 21.7727H31.7273V20.7727H6.27273V21.7727ZM3.5 19C3.5 20.5313 4.74139 21.7727 6.27273 21.7727V20.7727C5.29368 20.7727 4.5 19.979 4.5 19H3.5Z" fill="#27B8E0"/>
</svg>
