<svg width="40" height="50" viewBox="0 0 40 50" fill="none" xmlns="http://www.w3.org/2000/svg">
<path d="M33.9016 15.756L20.6702 8.53107C20.2525 8.30141 19.7473 8.30141 19.3296 8.53107L6.08856 15.756C5.26282 16.2057 5.15596 17.2966 5.76798 17.9091C5.72912 18.2727 5.78741 18.6555 6.00113 19.0191L18.3096 40.665C19.0479 41.9665 20.952 41.9665 21.6903 40.665L33.9987 19.0191C34.2027 18.6555 34.261 18.2727 34.2319 17.9091C34.8536 17.2966 34.7467 16.2153 33.9113 15.756H33.9016Z" fill="#FFDE7B" stroke="#FF9200" stroke-width="2.83" stroke-miterlimit="10"/>
<path d="M21.6904 40.665L33.9988 19.0191C34.7177 17.7464 33.7851 16.177 32.3085 16.177H7.69159C6.21497 16.177 5.28236 17.7464 6.00124 19.0191L18.3097 40.665C19.048 41.9665 20.9521 41.9665 21.6904 40.665Z" fill="#FFC23B"/>
<path d="M19.3296 8.53107L6.08854 15.756C5.1365 16.2727 5.1365 17.622 6.08854 18.1483L19.3199 25.3827C19.7376 25.6124 20.2428 25.6124 20.6605 25.3827L33.8918 18.1483C34.8439 17.6316 34.8439 16.2823 33.8918 15.756L20.6702 8.53107C20.2525 8.30141 19.7473 8.30141 19.3296 8.53107Z" fill="url(#paint0_linear_26_909)"/>
<defs>
<linearGradient id="paint0_linear_26_909" x1="19.9902" y1="8.35883" x2="19.9902" y2="25.555" gradientUnits="userSpaceOnUse">
<stop stop-color="#FFFAD4"/>
<stop offset="1" stop-color="#FFF7AE"/>
</linearGradient>
</defs>
</svg>
