<svg width="20" height="20" viewBox="0 0 20 20" fill="none" xmlns="http://www.w3.org/2000/svg">
<path fill-rule="evenodd" clip-rule="evenodd" d="M1.02284 1.02268C1.60862 0.436897 2.55837 0.436897 3.14416 1.02268L10.0002 7.87869L16.8562 1.02268C17.442 0.436897 18.3917 0.436897 18.9775 1.02268C19.5633 1.60847 19.5633 2.55822 18.9775 3.144L12.1215 10L18.9775 16.856C19.5633 17.4418 19.5633 18.3916 18.9775 18.9773C18.3917 19.5631 17.442 19.5631 16.8562 18.9773L10.0002 12.1213L3.14416 18.9773C2.55837 19.5631 1.60862 19.5631 1.02284 18.9773C0.437049 18.3916 0.437049 17.4418 1.02284 16.856L7.87884 10L1.02284 3.144C0.437049 2.55822 0.437049 1.60847 1.02284 1.02268Z" fill="white" stroke="#AFB7B9"/>
</svg>
