<svg width="126" height="126" viewBox="0 0 126 126" fill="none" xmlns="http://www.w3.org/2000/svg">
<path d="M103.4 58.8989C103.4 75.0218 101.18 84.3824 95.3016 89.8078C89.3972 95.2575 79.5335 97 63.4 97C47.3047 97 37.4389 94.7815 31.5277 88.8638C25.6161 82.9458 23.4 73.0682 23.4 56.9548C23.4 40.841 25.6163 30.9874 31.5264 25.0922C37.4372 19.1964 47.3029 17 63.4 17C79.4591 17 89.3275 19.6698 95.2475 26.0372C101.188 32.4261 103.4 42.7934 103.4 58.8989Z" stroke="#83FFDC" stroke-width="2"/>
<path fill-rule="evenodd" clip-rule="evenodd" d="M50.8065 57.2C50.8065 56.3913 51.4621 55.7357 52.2708 55.7357L61.7357 55.7357L61.7357 46.2708C61.7357 45.4621 62.3913 44.8065 63.2 44.8065C64.0087 44.8065 64.6642 45.4621 64.6642 46.2708L64.6642 55.7357L74.1292 55.7357C74.9379 55.7357 75.5935 56.3913 75.5935 57.2C75.5935 58.0087 74.9379 58.6643 74.1292 58.6643L64.6642 58.6643L64.6642 68.1292C64.6642 68.9379 64.0087 69.5935 63.2 69.5935C62.3913 69.5935 61.7357 68.9379 61.7357 68.1292L61.7357 58.6643L52.2708 58.6643C51.4621 58.6643 50.8065 58.0087 50.8065 57.2Z" fill="#83FFDC"/>
<path d="M48.97 117.866H52.778V118.888H48.97V117.866ZM41.242 109.9H46.618V110.922H41.242V109.9ZM48.494 108.99H53.282V119.812H52.218V109.998H49.516V119.91H48.494V108.99ZM46.338 109.9H47.36C47.36 109.9 47.36 110.292 47.36 110.432C47.248 116.662 47.15 118.706 46.702 119.322C46.45 119.686 46.198 119.812 45.778 119.854C45.386 119.91 44.742 119.91 44.112 119.868C44.098 119.56 43.986 119.098 43.804 118.804C44.462 118.86 45.064 118.86 45.33 118.86C45.54 118.874 45.666 118.832 45.792 118.65C46.114 118.216 46.24 116.144 46.338 110.152V109.9ZM43.23 107.436H44.252C44.238 112.602 44.168 117.46 41.704 120.134C41.522 119.896 41.158 119.574 40.892 119.42C43.23 116.956 43.216 112.336 43.23 107.436ZM57.678 108.094H61.64V109.158H57.678V108.094ZM61.108 108.094H62.186C62.186 110.6 62.494 115.92 68.024 119.196C67.786 119.378 67.366 119.826 67.17 120.078C61.57 116.69 61.108 110.726 61.108 108.094ZM60.716 110.838L61.906 111.062C60.898 115.332 59.05 118.286 55.956 120.106C55.76 119.882 55.284 119.448 55.004 119.252C58.112 117.628 59.862 114.8 60.716 110.838ZM76.874 110.373L73.9004 119H72.1025L75.8486 109.047H76.9971L76.874 110.373ZM79.3623 119L76.3818 110.373L76.252 109.047H77.4072L81.167 119H79.3623ZM79.2188 115.309V116.669H73.8047V115.309H79.2188ZM84.1133 109.047V119H82.3975V109.047H84.1133Z" fill="#83FFDC"/>
</svg>
