<svg width="28" height="28" viewBox="0 0 28 28" fill="none" xmlns="http://www.w3.org/2000/svg">
<circle cx="14" cy="14" r="14" fill="url(#paint0_linear_409_158)"/>
<path fill-rule="evenodd" clip-rule="evenodd" d="M8.70808 8.70808C9.05338 8.36277 9.61323 8.36277 9.95854 8.70808L14 12.7495L18.0414 8.70808C18.3867 8.36277 18.9466 8.36277 19.2919 8.70808C19.6372 9.05338 19.6372 9.61323 19.2919 9.95854L15.2504 14L19.2919 18.0414C19.6372 18.3867 19.6372 18.9466 19.2919 19.2919C18.9466 19.6372 18.3867 19.6372 18.0414 19.2919L14 15.2504L9.95854 19.2919C9.61323 19.6372 9.05338 19.6372 8.70808 19.2919C8.36277 18.9466 8.36277 18.3867 8.70808 18.0414L12.7495 14L8.70808 9.95854C8.36277 9.61323 8.36277 9.05338 8.70808 8.70808Z" fill="#006989"/>
<defs>
<linearGradient id="paint0_linear_409_158" x1="14" y1="0" x2="14" y2="28" gradientUnits="userSpaceOnUse">
<stop stop-color="white"/>
<stop offset="1" stop-color="#DAFFFF"/>
</linearGradient>
</defs>
</svg>
