<svg width="226" height="124" viewBox="0 0 226 124" fill="none" xmlns="http://www.w3.org/2000/svg">
<g clip-path="url(#clip0_214_2933)">
<path d="M0.24939 63.0989L1.1073 91.4814C0.758152 93.8791 1.95524 95.9571 3.97033 96.4466L112.067 123.89C112.686 124.04 113.324 124.04 113.943 123.89L222.04 96.4466C224.055 95.9571 225.252 93.8791 224.903 91.4814L225.761 63.0989C225.461 61.0209 220.174 34.1569 218.189 33.7473L113.813 11.8185C113.274 11.7086 112.726 11.7086 112.187 11.8185L7.82096 33.7373C5.83579 34.1569 0.548661 61.0109 0.24939 63.0889V63.0989Z" fill="#27B8E0"/>
<path d="M5.23725 28.7423L0.249386 63.099C-0.379085 67.4248 1.87543 71.2012 5.65623 72.0903L111.239 96.8963C112.396 97.1661 113.594 97.1661 114.751 96.8963L220.334 72.0903C224.125 71.2012 226.379 67.4248 225.741 63.099L220.743 28.7423C220.174 24.8361 217.062 21.4893 213.301 20.7101L114.541 0.299804C113.524 0.0900068 112.466 0.0900068 111.449 0.299804L12.6891 20.7101C8.91829 21.4893 5.81584 24.8261 5.24722 28.7423H5.23725Z" fill="url(#paint0_linear_214_2933)" stroke="#7DCBD3" stroke-width="0.28" stroke-miterlimit="10"/>
<path opacity="0.4" d="M199.175 43.6677C200.741 57.2945 162.175 68.7135 112.995 68.7135C63.8147 68.7135 25.2585 57.2945 26.8247 43.6677C28.3311 30.5204 66.8972 20.1904 113.005 20.1904C159.113 20.1904 197.669 30.5204 199.185 43.6677H199.175Z" fill="#27B8E0"/>
</g>
<defs>
<linearGradient id="paint0_linear_214_2933" x1="112.995" y1="0.139958" x2="112.995" y2="97.0861" gradientUnits="userSpaceOnUse">
<stop stop-color="#DEF6FF"/>
<stop offset="1" stop-color="#B2EFFF"/>
</linearGradient>
<clipPath id="clip0_214_2933">
<rect width="226" height="124" fill="white"/>
</clipPath>
</defs>
</svg>
